<?xml version="1.0" encoding="UTF-8"?>
<svg xmlns="http://www.w3.org/2000/svg" xmlns:xlink="http://www.w3.org/1999/xlink" width="375pt" height="374.999991pt" viewBox="0 0 375 374.999991" version="1.2">
<defs>
<clipPath id="clip1">
  <path d="M 204.617188 210.519531 L 340.367188 210.519531 L 340.367188 346.269531 L 204.617188 346.269531 Z M 204.617188 210.519531 "/>
</clipPath>
</defs>
<g id="surface1">
<g clip-path="url(#clip1)" clip-rule="nonzero">
<path style=" stroke:none;fill-rule:nonzero;fill:rgb(54.899597%,32.159424%,100%);fill-opacity:1;" d="M 340.367188 236.164062 L 314.714844 210.519531 L 272.496094 252.738281 L 230.265625 210.519531 L 204.617188 236.164062 L 246.839844 278.398438 L 204.617188 320.617188 L 230.265625 346.269531 L 272.496094 304.042969 L 314.714844 346.269531 L 340.367188 320.617188 L 298.144531 278.398438 Z M 340.367188 236.164062 "/>
</g>
<path style=" stroke:none;fill-rule:nonzero;fill:rgb(54.899597%,32.159424%,100%);fill-opacity:1;" d="M 272.488281 28.738281 C 271.378906 28.738281 270.269531 28.765625 269.160156 28.820312 C 268.050781 28.875 266.941406 28.957031 265.835938 29.0625 C 264.730469 29.171875 263.628906 29.308594 262.53125 29.472656 C 261.433594 29.636719 260.335938 29.824219 259.25 30.042969 C 258.160156 30.257812 257.074219 30.5 256 30.769531 C 254.921875 31.042969 253.851562 31.335938 252.789062 31.660156 C 251.722656 31.980469 250.671875 32.332031 249.625 32.703125 C 248.578125 33.078125 247.542969 33.480469 246.515625 33.902344 C 245.488281 34.328125 244.476562 34.777344 243.46875 35.253906 C 242.464844 35.730469 241.476562 36.226562 240.496094 36.75 C 239.515625 37.273438 238.550781 37.824219 237.597656 38.394531 C 236.644531 38.964844 235.707031 39.558594 234.78125 40.175781 C 233.859375 40.792969 232.949219 41.433594 232.058594 42.09375 C 231.167969 42.753906 230.289062 43.4375 229.433594 44.144531 C 228.574219 44.847656 227.734375 45.574219 226.910156 46.320312 C 226.085938 47.066406 225.28125 47.832031 224.496094 48.617188 C 223.710938 49.402344 222.945312 50.207031 222.199219 51.027344 C 221.453125 51.851562 220.730469 52.691406 220.023438 53.550781 C 219.320312 54.410156 218.636719 55.285156 217.972656 56.179688 C 217.3125 57.070312 216.671875 57.976562 216.054688 58.902344 C 215.4375 59.824219 214.84375 60.761719 214.273438 61.714844 C 213.703125 62.667969 213.15625 63.632812 212.632812 64.613281 C 212.109375 65.59375 211.609375 66.585938 211.132812 67.589844 C 210.660156 68.59375 210.210938 69.609375 209.785156 70.636719 C 209.359375 71.660156 208.960938 72.699219 208.585938 73.742188 C 208.210938 74.789062 207.863281 75.84375 207.539062 76.90625 C 207.21875 77.96875 206.921875 79.039062 206.652344 80.117188 C 206.382812 81.195312 206.140625 82.277344 205.921875 83.367188 C 205.707031 84.457031 205.515625 85.550781 205.351562 86.648438 C 205.191406 87.75 205.054688 88.851562 204.945312 89.957031 C 204.835938 91.0625 204.753906 92.167969 204.699219 93.277344 C 204.644531 94.386719 204.617188 95.496094 204.617188 96.609375 C 204.617188 97.71875 204.644531 98.828125 204.699219 99.9375 C 204.753906 101.046875 204.835938 102.15625 204.945312 103.261719 C 205.054688 104.367188 205.191406 105.46875 205.351562 106.566406 C 205.515625 107.667969 205.707031 108.761719 205.921875 109.851562 C 206.140625 110.9375 206.382812 112.023438 206.652344 113.101562 C 206.921875 114.175781 207.21875 115.246094 207.539062 116.3125 C 207.863281 117.375 208.210938 118.429688 208.585938 119.472656 C 208.960938 120.519531 209.359375 121.554688 209.785156 122.582031 C 210.210938 123.609375 210.660156 124.625 211.132812 125.628906 C 211.609375 126.632812 212.109375 127.625 212.632812 128.601562 C 213.15625 129.582031 213.703125 130.550781 214.273438 131.5 C 214.84375 132.453125 215.4375 133.390625 216.054688 134.316406 C 216.671875 135.238281 217.3125 136.148438 217.976562 137.039062 C 218.636719 137.933594 219.320312 138.808594 220.023438 139.664062 C 220.730469 140.523438 221.453125 141.367188 222.199219 142.1875 C 222.945312 143.011719 223.710938 143.816406 224.496094 144.601562 C 225.28125 145.386719 226.085938 146.152344 226.910156 146.898438 C 227.734375 147.644531 228.574219 148.371094 229.433594 149.074219 C 230.289062 149.777344 231.167969 150.460938 232.058594 151.125 C 232.949219 151.785156 233.859375 152.425781 234.78125 153.042969 C 235.707031 153.660156 236.644531 154.253906 237.597656 154.824219 C 238.550781 155.394531 239.515625 155.941406 240.496094 156.464844 C 241.476562 156.988281 242.464844 157.488281 243.46875 157.964844 C 244.476562 158.4375 245.488281 158.890625 246.515625 159.3125 C 247.542969 159.738281 248.578125 160.136719 249.625 160.511719 C 250.671875 160.886719 251.722656 161.234375 252.789062 161.558594 C 253.851562 161.878906 254.921875 162.175781 256 162.445312 C 257.074219 162.714844 258.160156 162.960938 259.25 163.175781 C 260.335938 163.394531 261.433594 163.582031 262.53125 163.746094 C 263.628906 163.910156 264.730469 164.042969 265.835938 164.152344 C 266.941406 164.261719 268.050781 164.34375 269.160156 164.398438 C 270.269531 164.453125 271.378906 164.480469 272.488281 164.480469 C 273.601562 164.480469 274.710938 164.453125 275.820312 164.398438 C 276.929688 164.34375 278.035156 164.261719 279.140625 164.152344 C 280.246094 164.042969 281.347656 163.910156 282.449219 163.746094 C 283.546875 163.582031 284.640625 163.394531 285.730469 163.175781 C 286.820312 162.960938 287.902344 162.714844 288.980469 162.445312 C 290.058594 162.175781 291.128906 161.878906 292.191406 161.558594 C 293.253906 161.234375 294.308594 160.886719 295.355469 160.511719 C 296.402344 160.136719 297.4375 159.738281 298.460938 159.3125 C 299.488281 158.886719 300.503906 158.4375 301.507812 157.964844 C 302.511719 157.488281 303.503906 156.988281 304.484375 156.464844 C 305.464844 155.941406 306.429688 155.394531 307.382812 154.824219 C 308.335938 154.253906 309.273438 153.660156 310.195312 153.042969 C 311.121094 152.425781 312.027344 151.785156 312.921875 151.125 C 313.8125 150.460938 314.6875 149.777344 315.546875 149.074219 C 316.40625 148.371094 317.246094 147.644531 318.070312 146.898438 C 318.890625 146.152344 319.695312 145.386719 320.480469 144.601562 C 321.265625 143.816406 322.03125 143.011719 322.777344 142.1875 C 323.523438 141.367188 324.25 140.523438 324.953125 139.664062 C 325.660156 138.808594 326.34375 137.933594 327.003906 137.039062 C 327.664062 136.148438 328.304688 135.238281 328.921875 134.316406 C 329.539062 133.390625 330.132812 132.453125 330.703125 131.5 C 331.277344 130.550781 331.824219 129.582031 332.347656 128.601562 C 332.871094 127.625 333.371094 126.632812 333.84375 125.628906 C 334.320312 124.625 334.769531 123.609375 335.195312 122.582031 C 335.621094 121.554688 336.019531 120.519531 336.394531 119.472656 C 336.769531 118.429688 337.117188 117.375 337.4375 116.3125 C 337.761719 115.246094 338.058594 114.175781 338.328125 113.101562 C 338.597656 112.023438 338.839844 110.9375 339.058594 109.851562 C 339.273438 108.761719 339.464844 107.667969 339.625 106.566406 C 339.789062 105.46875 339.925781 104.367188 340.035156 103.261719 C 340.144531 102.15625 340.226562 101.046875 340.277344 99.9375 C 340.332031 98.828125 340.359375 97.71875 340.359375 96.609375 C 340.359375 95.496094 340.332031 94.386719 340.277344 93.277344 C 340.226562 92.167969 340.144531 91.0625 340.035156 89.957031 C 339.925781 88.851562 339.789062 87.75 339.625 86.648438 C 339.464844 85.550781 339.273438 84.457031 339.058594 83.367188 C 338.839844 82.277344 338.597656 81.195312 338.328125 80.117188 C 338.058594 79.039062 337.761719 77.96875 337.4375 76.90625 C 337.117188 75.84375 336.769531 74.789062 336.394531 73.742188 C 336.019531 72.699219 335.621094 71.660156 335.195312 70.636719 C 334.769531 69.609375 334.320312 68.59375 333.84375 67.589844 C 333.371094 66.585938 332.871094 65.59375 332.347656 64.613281 C 331.824219 63.632812 331.277344 62.667969 330.703125 61.714844 C 330.132812 60.761719 329.539062 59.824219 328.921875 58.902344 C 328.304688 57.976562 327.664062 57.070312 327.003906 56.179688 C 326.34375 55.285156 325.660156 54.410156 324.953125 53.550781 C 324.25 52.691406 323.523438 51.851562 322.777344 51.027344 C 322.03125 50.207031 321.265625 49.402344 320.480469 48.617188 C 319.695312 47.832031 318.890625 47.066406 318.070312 46.320312 C 317.246094 45.574219 316.40625 44.847656 315.546875 44.144531 C 314.6875 43.4375 313.8125 42.753906 312.921875 42.09375 C 312.027344 41.433594 311.121094 40.792969 310.195312 40.175781 C 309.273438 39.558594 308.335938 38.964844 307.382812 38.394531 C 306.429688 37.824219 305.464844 37.273438 304.484375 36.75 C 303.503906 36.226562 302.511719 35.730469 301.507812 35.253906 C 300.503906 34.777344 299.488281 34.328125 298.460938 33.902344 C 297.4375 33.480469 296.402344 33.078125 295.355469 32.703125 C 294.308594 32.332031 293.253906 31.980469 292.191406 31.660156 C 291.128906 31.335938 290.058594 31.042969 288.980469 30.769531 C 287.902344 30.5 286.820312 30.257812 285.730469 30.042969 C 284.640625 29.824219 283.546875 29.636719 282.449219 29.472656 C 281.347656 29.308594 280.246094 29.171875 279.140625 29.0625 C 278.035156 28.957031 276.929688 28.875 275.820312 28.820312 C 274.710938 28.765625 273.601562 28.738281 272.488281 28.738281 Z M 272.488281 28.738281 "/>
<path style=" stroke:none;fill-rule:nonzero;fill:rgb(54.899597%,32.159424%,100%);fill-opacity:1;" d="M 34.640625 210.519531 L 170.382812 210.519531 L 170.382812 346.261719 L 34.640625 346.261719 Z M 34.640625 210.519531 "/>
<path style=" stroke:none;fill-rule:nonzero;fill:rgb(54.899597%,32.159424%,100%);fill-opacity:1;" d="M 34.640625 155.386719 L 102.511719 37.832031 L 170.382812 155.386719 Z M 34.640625 155.386719 "/>
</g>
</svg>
