<?xml version="1.0" encoding="UTF-8"?>
<svg xmlns="http://www.w3.org/2000/svg" xmlns:xlink="http://www.w3.org/1999/xlink" width="375pt" height="374.999991pt" viewBox="0 0 375 374.999991" version="1.2">
<defs>
<clipPath id="clip1">
  <path d="M 1 45.683594 L 374 45.683594 L 374 329.183594 L 1 329.183594 Z M 1 45.683594 "/>
</clipPath>
</defs>
<g id="surface1">
<g clip-path="url(#clip1)" clip-rule="nonzero">
<path style=" stroke:none;fill-rule:nonzero;fill:rgb(100%,100%,100%);fill-opacity:1;" d="M 363.046875 106.433594 L 267.828125 106.433594 C 265.449219 106.433594 263.074219 106.289062 260.714844 106 C 258.351562 105.707031 256.015625 105.273438 253.703125 104.695312 C 251.394531 104.121094 249.128906 103.402344 246.910156 102.546875 C 244.6875 101.691406 242.527344 100.703125 240.429688 99.578125 C 238.328125 98.457031 236.308594 97.210938 234.359375 95.839844 C 232.414062 94.472656 230.5625 92.984375 228.796875 91.386719 C 227.035156 89.789062 225.375 88.089844 223.820312 86.285156 C 222.269531 84.484375 220.832031 82.59375 219.507812 80.613281 C 217.730469 77.9375 215.789062 75.378906 213.695312 72.941406 C 211.597656 70.503906 209.363281 68.203125 206.984375 66.039062 C 204.601562 63.878906 202.101562 61.871094 199.472656 60.015625 C 196.847656 58.160156 194.117188 56.476562 191.28125 54.957031 C 188.445312 53.441406 185.53125 52.101562 182.53125 50.941406 C 179.53125 49.785156 176.472656 48.8125 173.351562 48.03125 C 170.234375 47.25 167.078125 46.664062 163.886719 46.269531 C 160.695312 45.875 157.492188 45.679688 154.273438 45.683594 L 92.078125 45.683594 C 90.277344 45.671875 88.480469 45.742188 86.683594 45.882812 C 84.886719 46.027344 83.101562 46.246094 81.324219 46.542969 C 79.546875 46.835938 77.789062 47.207031 76.042969 47.652344 C 74.296875 48.09375 72.574219 48.613281 70.871094 49.203125 C 69.167969 49.792969 67.496094 50.453125 65.851562 51.1875 C 64.203125 51.917969 62.59375 52.71875 61.015625 53.589844 C 59.4375 54.457031 57.898438 55.390625 56.402344 56.390625 C 54.902344 57.390625 53.449219 58.453125 52.042969 59.574219 C 50.632812 60.695312 49.273438 61.875 47.964844 63.113281 C 46.660156 64.351562 45.40625 65.640625 44.207031 66.984375 C 43.007812 68.332031 41.867188 69.722656 40.789062 71.164062 C 39.707031 72.601562 38.6875 74.085938 37.734375 75.613281 C 36.78125 77.140625 35.890625 78.703125 35.070312 80.308594 C 34.246094 81.910156 33.496094 83.542969 32.8125 85.210938 C 32.128906 86.875 31.515625 88.566406 30.976562 90.285156 C 30.4375 92.003906 29.972656 93.738281 29.578125 95.496094 L 3.445312 210.414062 C 2.988281 212.402344 2.628906 214.410156 2.367188 216.433594 C 2.101562 218.457031 1.933594 220.484375 1.867188 222.523438 C 1.796875 224.5625 1.824219 226.601562 1.953125 228.636719 C 2.078125 230.671875 2.300781 232.699219 2.621094 234.714844 C 2.941406 236.726562 3.355469 238.722656 3.867188 240.699219 C 4.378906 242.671875 4.984375 244.617188 5.683594 246.535156 C 6.378906 248.453125 7.167969 250.332031 8.046875 252.171875 C 8.925781 254.015625 9.886719 255.808594 10.9375 257.558594 C 11.988281 259.308594 13.121094 261.003906 14.332031 262.644531 C 15.542969 264.285156 16.832031 265.863281 18.195312 267.382812 C 19.558594 268.898438 20.992188 270.347656 22.496094 271.730469 C 24 273.109375 25.5625 274.414062 27.191406 275.644531 C 28.820312 276.875 30.503906 278.027344 32.242188 279.09375 C 33.976562 280.164062 35.761719 281.148438 37.597656 282.046875 C 39.429688 282.945312 41.300781 283.753906 43.207031 284.472656 C 45.117188 285.191406 47.058594 285.820312 49.027344 286.351562 L 49.027344 329.183594 L 69.289062 329.183594 L 69.289062 288.683594 C 71.3125 288.574219 73.328125 288.375 75.332031 288.078125 C 77.339844 287.78125 79.328125 287.390625 81.296875 286.90625 C 83.265625 286.417969 85.207031 285.84375 87.121094 285.171875 C 89.035156 284.503906 90.914062 283.746094 92.753906 282.898438 C 94.597656 282.050781 96.394531 281.117188 98.148438 280.101562 C 99.902344 279.082031 101.601562 277.984375 103.25 276.804688 C 104.902344 275.625 106.492188 274.371094 108.019531 273.039062 C 109.550781 271.710938 111.015625 270.3125 112.410156 268.839844 C 113.808594 267.371094 115.132812 265.839844 116.386719 264.246094 C 117.636719 262.652344 118.8125 261.003906 119.90625 259.296875 C 121 257.589844 122.015625 255.835938 122.941406 254.035156 C 123.871094 252.234375 124.714844 250.390625 125.46875 248.511719 C 126.222656 246.628906 126.882812 244.714844 127.457031 242.773438 C 128.03125 240.828125 128.507812 238.859375 128.894531 236.871094 C 129.28125 234.878906 129.570312 232.875 129.765625 230.859375 C 129.960938 228.84375 130.0625 226.820312 130.066406 224.792969 L 130.066406 106.433594 L 109.804688 106.433594 L 109.804688 224.589844 C 109.800781 226.027344 109.730469 227.457031 109.585938 228.882812 C 109.441406 230.3125 109.230469 231.730469 108.945312 233.136719 C 108.664062 234.542969 108.3125 235.933594 107.894531 237.304688 C 107.476562 238.679688 106.992188 240.027344 106.441406 241.351562 C 105.890625 242.675781 105.273438 243.972656 104.597656 245.238281 C 103.917969 246.503906 103.179688 247.730469 102.382812 248.921875 C 101.585938 250.117188 100.730469 251.265625 99.820312 252.375 C 98.90625 253.484375 97.945312 254.546875 96.929688 255.5625 C 95.914062 256.574219 94.851562 257.539062 93.742188 258.449219 C 92.632812 259.359375 91.480469 260.214844 90.289062 261.011719 C 89.09375 261.808594 87.867188 262.546875 86.601562 263.226562 C 85.335938 263.902344 84.039062 264.515625 82.714844 265.066406 C 81.386719 265.617188 80.039062 266.101562 78.664062 266.519531 C 77.292969 266.941406 75.902344 267.289062 74.496094 267.574219 C 73.085938 267.855469 71.667969 268.066406 70.242188 268.210938 C 68.8125 268.355469 67.378906 268.429688 65.945312 268.433594 C 65.125 268.429688 64.304688 268.40625 63.488281 268.363281 C 62.667969 268.316406 61.851562 268.246094 61.039062 268.152344 C 60.222656 268.0625 59.410156 267.945312 58.605469 267.808594 C 57.796875 267.671875 56.992188 267.511719 56.191406 267.328125 C 55.394531 267.148438 54.601562 266.941406 53.8125 266.714844 C 53.023438 266.488281 52.242188 266.238281 51.46875 265.96875 C 50.695312 265.695312 49.929688 265.40625 49.171875 265.089844 C 48.417969 264.777344 47.667969 264.441406 46.929688 264.085938 C 46.191406 263.730469 45.464844 263.355469 44.746094 262.957031 C 44.027344 262.5625 43.324219 262.144531 42.628906 261.710938 C 41.933594 261.273438 41.253906 260.820312 40.585938 260.34375 C 39.914062 259.871094 39.261719 259.378906 38.621094 258.867188 C 37.980469 258.355469 37.351562 257.828125 36.742188 257.28125 C 36.128906 256.734375 35.535156 256.171875 34.957031 255.59375 C 34.375 255.015625 33.8125 254.417969 33.265625 253.808594 C 32.71875 253.195312 32.191406 252.570312 31.679688 251.929688 C 31.167969 251.289062 30.675781 250.636719 30.199219 249.96875 C 29.726562 249.300781 29.269531 248.617188 28.835938 247.925781 C 28.398438 247.230469 27.980469 246.523438 27.585938 245.808594 C 27.1875 245.089844 26.8125 244.363281 26.457031 243.625 C 26.101562 242.886719 25.765625 242.140625 25.449219 241.382812 C 25.136719 240.625 24.84375 239.859375 24.574219 239.085938 C 24.300781 238.3125 24.054688 237.535156 23.824219 236.746094 C 23.597656 235.960938 23.394531 235.167969 23.210938 234.367188 C 23.027344 233.570312 22.867188 232.765625 22.730469 231.957031 C 22.59375 231.148438 22.476562 230.339844 22.386719 229.523438 C 22.292969 228.710938 22.222656 227.894531 22.175781 227.074219 C 22.128906 226.257812 22.105469 225.4375 22.105469 224.621094 C 22.105469 223.800781 22.128906 222.980469 22.171875 222.164062 C 22.21875 221.34375 22.289062 220.527344 22.378906 219.714844 C 22.46875 218.898438 22.582031 218.089844 22.71875 217.28125 C 22.855469 216.472656 23.015625 215.667969 23.199219 214.871094 L 49.332031 100.054688 C 49.597656 98.847656 49.910156 97.65625 50.277344 96.480469 C 50.644531 95.304688 51.058594 94.144531 51.523438 93 C 51.988281 91.859375 52.5 90.738281 53.0625 89.640625 C 53.621094 88.542969 54.226562 87.46875 54.878906 86.421875 C 55.53125 85.375 56.226562 84.359375 56.964844 83.371094 C 57.703125 82.382812 58.480469 81.429688 59.300781 80.507812 C 60.121094 79.585938 60.976562 78.699219 61.871094 77.851562 C 62.765625 77.003906 63.695312 76.195312 64.660156 75.425781 C 65.625 74.65625 66.617188 73.929688 67.644531 73.246094 C 68.671875 72.558594 69.722656 71.917969 70.804688 71.324219 C 71.882812 70.730469 72.988281 70.179688 74.113281 69.679688 C 75.242188 69.179688 76.386719 68.726562 77.554688 68.324219 C 78.71875 67.921875 79.898438 67.566406 81.09375 67.261719 C 82.289062 66.960938 83.496094 66.707031 84.714844 66.507812 C 85.929688 66.308594 87.15625 66.160156 88.382812 66.0625 C 89.613281 65.96875 90.84375 65.921875 92.078125 65.933594 L 154.273438 65.933594 C 156.65625 65.929688 159.027344 66.074219 161.390625 66.363281 C 163.753906 66.65625 166.089844 67.089844 168.398438 67.667969 C 170.707031 68.246094 172.972656 68.960938 175.191406 69.816406 C 177.414062 70.671875 179.574219 71.664062 181.671875 72.785156 C 183.773438 73.90625 185.796875 75.152344 187.742188 76.523438 C 189.6875 77.894531 191.542969 79.378906 193.304688 80.976562 C 195.066406 82.574219 196.726562 84.273438 198.28125 86.078125 C 199.835938 87.878906 201.273438 89.769531 202.59375 91.75 C 204.375 94.425781 206.3125 96.984375 208.40625 99.421875 C 210.503906 101.859375 212.742188 104.160156 215.121094 106.324219 C 217.5 108.484375 220.003906 110.492188 222.628906 112.347656 C 225.257812 114.203125 227.988281 115.886719 230.820312 117.40625 C 233.65625 118.921875 236.574219 120.261719 239.574219 121.421875 C 242.570312 122.578125 245.632812 123.550781 248.75 124.332031 C 251.871094 125.113281 255.023438 125.699219 258.214844 126.09375 C 261.410156 126.488281 264.613281 126.683594 267.828125 126.683594 L 323.945312 126.683594 C 324.398438 128.414062 324.964844 130.109375 325.640625 131.769531 C 326.320312 133.429688 327.105469 135.035156 327.996094 136.589844 C 328.886719 138.144531 329.875 139.632812 330.964844 141.054688 C 332.054688 142.476562 333.230469 143.824219 334.5 145.089844 C 335.765625 146.355469 337.113281 147.535156 338.535156 148.621094 C 339.960938 149.710938 341.449219 150.699219 343.003906 151.589844 C 344.558594 152.484375 346.167969 153.265625 347.824219 153.945312 C 349.484375 154.621094 351.183594 155.1875 352.917969 155.640625 L 352.917969 180.242188 C 352.917969 181.3125 352.839844 182.375 352.671875 183.429688 C 352.507812 184.484375 352.261719 185.519531 351.929688 186.535156 C 351.601562 187.550781 351.195312 188.535156 350.710938 189.488281 C 350.222656 190.441406 349.667969 191.347656 349.039062 192.210938 C 348.410156 193.074219 347.714844 193.886719 346.960938 194.640625 C 346.203125 195.394531 345.390625 196.082031 344.523438 196.710938 C 343.65625 197.335938 342.746094 197.886719 341.792969 198.371094 C 340.839844 198.851562 339.855469 199.257812 338.835938 199.582031 C 333.96875 200.832031 329.03125 201.691406 324.023438 202.15625 C 319.019531 202.617188 314.007812 202.683594 308.992188 202.347656 C 303.976562 202.011719 299.015625 201.28125 294.117188 200.15625 C 289.21875 199.027344 284.441406 197.523438 279.78125 195.632812 C 278.980469 195.3125 278.164062 195.027344 277.339844 194.773438 C 276.511719 194.523438 275.679688 194.308594 274.832031 194.128906 C 273.988281 193.949219 273.136719 193.804688 272.28125 193.695312 C 271.425781 193.589844 270.566406 193.515625 269.703125 193.484375 C 268.839844 193.449219 267.976562 193.449219 267.113281 193.488281 C 266.253906 193.527344 265.394531 193.605469 264.535156 193.71875 C 263.679688 193.828125 262.832031 193.976562 261.988281 194.164062 C 261.144531 194.347656 260.308594 194.566406 259.484375 194.824219 C 258.660156 195.078125 257.847656 195.367188 257.046875 195.695312 C 256.25 196.019531 255.464844 196.378906 254.695312 196.769531 C 253.925781 197.160156 253.175781 197.585938 252.441406 198.039062 C 251.707031 198.496094 250.996094 198.980469 250.304688 199.5 C 249.613281 200.015625 248.941406 200.558594 248.296875 201.132812 C 247.652344 201.707031 247.03125 202.308594 246.4375 202.933594 C 245.84375 203.558594 245.277344 204.210938 244.738281 204.882812 C 244.199219 205.558594 243.691406 206.253906 243.210938 206.972656 L 233.082031 222.363281 L 250 233.5 L 260.128906 218.210938 C 260.445312 217.742188 260.796875 217.300781 261.183594 216.890625 C 261.574219 216.480469 261.992188 216.105469 262.445312 215.765625 C 262.898438 215.425781 263.375 215.125 263.875 214.863281 C 264.378906 214.605469 264.898438 214.386719 265.4375 214.214844 C 265.976562 214.039062 266.523438 213.914062 267.085938 213.832031 C 267.644531 213.75 268.207031 213.714844 268.773438 213.730469 C 269.339844 213.742188 269.898438 213.800781 270.453125 213.90625 C 271.007812 214.015625 271.550781 214.167969 272.082031 214.363281 C 281.28125 218.050781 290.796875 220.539062 300.625 221.824219 C 310.453125 223.109375 320.285156 223.15625 330.125 221.957031 C 329.5625 223.40625 328.910156 224.808594 328.160156 226.171875 C 327.414062 227.53125 326.582031 228.839844 325.664062 230.089844 C 324.742188 231.34375 323.746094 232.527344 322.671875 233.648438 C 321.59375 234.769531 320.449219 235.8125 319.238281 236.785156 C 318.023438 237.753906 316.75 238.636719 315.421875 239.441406 C 314.089844 240.242188 312.714844 240.953125 311.289062 241.574219 C 309.867188 242.195312 308.40625 242.71875 306.914062 243.148438 C 305.421875 243.574219 303.90625 243.902344 302.371094 244.132812 L 248.378906 252.433594 C 246.738281 252.675781 245.117188 252.992188 243.503906 253.378906 C 241.894531 253.765625 240.304688 254.222656 238.734375 254.75 C 237.164062 255.28125 235.621094 255.878906 234.105469 256.546875 C 232.589844 257.214844 231.109375 257.949219 229.65625 258.746094 C 228.207031 259.546875 226.796875 260.410156 225.421875 261.335938 C 224.050781 262.265625 222.722656 263.25 221.4375 264.296875 C 220.152344 265.339844 218.917969 266.441406 217.730469 267.597656 C 216.542969 268.753906 215.414062 269.957031 214.335938 271.214844 C 213.257812 272.472656 212.238281 273.777344 211.277344 275.125 C 210.3125 276.472656 209.414062 277.859375 208.578125 279.289062 C 207.742188 280.71875 206.96875 282.183594 206.265625 283.679688 C 205.558594 285.175781 204.921875 286.703125 204.351562 288.257812 C 203.78125 289.8125 203.285156 291.390625 202.855469 292.988281 C 202.425781 294.589844 202.070312 296.203125 201.789062 297.835938 C 201.503906 299.46875 201.296875 301.109375 201.160156 302.757812 C 201.023438 304.410156 200.960938 306.0625 200.972656 307.71875 L 200.972656 329.183594 L 221.230469 329.183594 L 221.230469 307.714844 C 221.222656 306.660156 221.265625 305.601562 221.351562 304.546875 C 221.4375 303.492188 221.574219 302.441406 221.757812 301.398438 C 221.9375 300.355469 222.167969 299.324219 222.441406 298.300781 C 222.714844 297.28125 223.035156 296.273438 223.402344 295.277344 C 223.765625 294.285156 224.175781 293.308594 224.628906 292.351562 C 225.082031 291.394531 225.578125 290.460938 226.113281 289.546875 C 226.652344 288.636719 227.226562 287.75 227.84375 286.890625 C 228.460938 286.027344 229.117188 285.199219 229.808594 284.394531 C 230.5 283.59375 231.222656 282.824219 231.984375 282.089844 C 232.746094 281.351562 233.539062 280.652344 234.363281 279.984375 C 235.183594 279.320312 236.039062 278.691406 236.917969 278.105469 C 237.796875 277.515625 238.703125 276.964844 239.632812 276.460938 C 240.5625 275.953125 241.511719 275.488281 242.480469 275.066406 C 243.453125 274.640625 244.441406 274.265625 245.445312 273.929688 C 246.453125 273.597656 247.46875 273.308594 248.5 273.066406 C 249.53125 272.824219 250.570312 272.628906 251.621094 272.480469 L 305.710938 264.179688 C 307.207031 263.953125 308.691406 263.667969 310.164062 263.324219 C 311.636719 262.980469 313.089844 262.574219 314.527344 262.109375 C 315.96875 261.644531 317.386719 261.121094 318.78125 260.542969 C 320.175781 259.960938 321.546875 259.324219 322.890625 258.632812 C 324.234375 257.941406 325.550781 257.195312 326.832031 256.394531 C 328.117188 255.597656 329.363281 254.746094 330.578125 253.84375 C 331.792969 252.945312 332.964844 251.996094 334.101562 250.996094 C 335.238281 250 336.332031 248.957031 337.382812 247.871094 C 338.433594 246.785156 339.4375 245.65625 340.394531 244.488281 C 341.355469 243.320312 342.265625 242.113281 343.125 240.871094 C 343.984375 239.628906 344.792969 238.351562 345.546875 237.042969 C 346.304688 235.734375 347.003906 234.398438 347.652344 233.03125 C 348.296875 231.664062 348.886719 230.273438 349.417969 228.859375 C 349.953125 227.445312 350.425781 226.011719 350.84375 224.558594 C 351.257812 223.105469 351.613281 221.636719 351.910156 220.15625 C 352.203125 218.671875 352.4375 217.183594 352.613281 215.679688 C 354.1875 214.808594 355.695312 213.835938 357.140625 212.761719 C 358.585938 211.6875 359.953125 210.519531 361.242188 209.265625 C 362.53125 208.007812 363.730469 206.671875 364.84375 205.257812 C 365.953125 203.839844 366.96875 202.355469 367.878906 200.804688 C 368.792969 199.253906 369.601562 197.648438 370.300781 195.992188 C 371 194.332031 371.585938 192.636719 372.058594 190.898438 C 372.53125 189.164062 372.886719 187.402344 373.125 185.617188 C 373.363281 183.835938 373.480469 182.042969 373.480469 180.242188 L 373.480469 116.558594 C 373.480469 115.878906 373.414062 115.207031 373.277344 114.542969 C 373.144531 113.878906 372.945312 113.234375 372.679688 112.609375 C 372.417969 111.984375 372.09375 111.394531 371.710938 110.835938 C 371.328125 110.277344 370.890625 109.761719 370.40625 109.289062 C 369.917969 108.816406 369.390625 108.398438 368.820312 108.03125 C 368.25 107.664062 367.648438 107.359375 367.015625 107.113281 C 366.382812 106.867188 365.734375 106.6875 365.066406 106.574219 C 364.398438 106.457031 363.722656 106.410156 363.046875 106.433594 Z M 363.046875 106.433594 "/>
</g>
</g>
</svg>
